<svg width="441" height="177" viewBox="0 0 441 177" fill="none" xmlns="http://www.w3.org/2000/svg">
<g style="mix-blend-mode:plus-darker">
<path d="M378.421 88.1513C370.948 82.859 363.282 74.5148 355.713 62.33C355.713 62.33 322.606 -0.0913427 273.226 0.00010037C244.567 0.0572523 228.986 10.8361 220.412 23.0552C211.813 10.859 196.12 0.194415 167.549 0.194415C118.169 0.285858 85.0855 62.833 85.0855 62.833C77.5406 75.052 69.9876 83.4076 62.5633 88.7456C43.2586 102.839 25.1363 96.9069 13.1755 88.8371C6.74056 84.4707 2.05917 79.4413 0 76.3894C0.255704 80.5994 0.761574 84.7711 1.5122 88.8599C6.48316 115.904 27.0749 177.16 111.372 177C111.372 177 191.656 176.84 220.532 112.189C249.441 176.737 329.724 176.577 329.724 176.577C414.11 176.417 434.589 115.093 439.512 88.0255C440.254 83.9355 440.752 79.7639 441 75.555C437.066 80.6693 432.597 84.884 427.752 88.0484C415.864 96.1754 397.757 102.222 378.421 88.1513Z" fill="black"/>
</g>
</svg>
