<svg width="364" height="365" viewBox="0 0 364 365" fill="none" xmlns="http://www.w3.org/2000/svg">
<path d="M63.1453 0C50.0838 8.09768 41.15 20.472 38.2958 34.4197C35.4415 48.3673 38.8986 62.7545 47.9119 74.4383L145.226 198.278L109.744 243.295C94.552 235.47 76.7084 232.772 59.4694 235.694C42.2304 238.616 26.7453 246.964 15.8395 259.213C4.93374 271.462 -0.665684 286.796 0.0631525 302.418C0.791989 318.039 7.80036 332.907 19.8095 344.307C31.8186 355.707 48.0279 362.881 65.4797 364.518C82.9314 366.155 100.462 362.148 114.873 353.226C129.284 344.304 139.615 331.064 143.979 315.92C148.344 300.777 146.453 284.739 138.65 270.735L181.984 215.56L225.319 270.693C217.482 284.695 215.557 300.741 219.896 315.902C224.234 331.063 234.547 344.329 248.951 353.279C263.356 362.229 280.892 366.265 298.359 364.652C315.826 363.039 332.06 355.884 344.098 344.492C356.136 333.101 363.176 318.232 363.932 302.601C364.688 286.969 359.111 271.616 348.218 259.343C337.324 247.071 321.841 238.698 304.595 235.752C287.348 232.805 269.487 235.483 254.272 243.295L218.838 198.278L316.151 74.4383C325.157 62.7561 328.614 48.3757 325.77 34.4318C322.925 20.4879 314.009 8.1113 300.965 0L181.984 151.364L63.1453 0ZM111.353 299.566C111.353 306.236 109.133 312.755 104.974 318.3C100.816 323.846 94.9048 328.168 87.9892 330.72C81.0736 333.272 73.4639 333.94 66.1223 332.639C58.7807 331.338 52.0371 328.126 46.7441 323.41C41.4511 318.695 37.8466 312.686 36.3863 306.145C34.9259 299.604 35.6755 292.824 38.54 286.662C41.4046 280.5 46.2555 275.234 52.4794 271.528C58.7032 267.823 66.0205 265.846 73.5059 265.846C83.5435 265.846 93.17 269.398 100.268 275.722C107.365 282.046 111.353 290.623 111.353 299.566ZM328.688 299.566C328.688 306.236 326.469 312.755 322.31 318.3C318.151 323.846 312.24 328.168 305.325 330.72C298.409 333.272 290.799 333.94 283.458 332.639C276.116 331.338 269.372 328.126 264.08 323.41C258.787 318.695 255.182 312.686 253.722 306.145C252.261 299.604 253.011 292.824 255.875 286.662C258.74 280.5 263.591 275.234 269.815 271.528C276.039 267.823 283.356 265.846 290.841 265.846C300.879 265.846 310.505 269.398 317.603 275.722C324.701 282.046 328.688 290.623 328.688 299.566Z" fill="black"/>
</svg>
